<svg width="64" height="62" viewBox="0 0 64 62" fill="none" xmlns="http://www.w3.org/2000/svg">
<path d="M32.0815 0C14.8954 0 0.836914 13.951 0.836914 31C0.836914 48.0515 14.898 62 32.0815 62C49.2675 62 63.326 48.049 63.326 31C63.326 13.9485 49.265 0 32.0815 0ZM40.3677 19.6374H36.6033C33.6504 19.6374 33.0752 21.031 33.0752 23.0768V27.5836H40.1237L39.207 34.6432H33.0778V51.2285H25.7314V34.6432H19.5867V27.5836H25.7314V22.3787C25.7314 16.3356 29.4495 13.0466 34.8829 13.0466C37.4866 13.0466 39.7231 13.2402 40.3702 13.3243V19.64L40.3677 19.6374Z" fill="white"/>
</svg>
