<svg width="64" height="62" viewBox="0 0 64 62" fill="none" xmlns="http://www.w3.org/2000/svg">
<path d="M32.0571 24.8627C28.511 24.8627 25.6377 27.7135 25.6377 31.2318C25.6377 34.7502 28.511 37.5985 32.0571 37.5985C35.6032 37.5985 38.4765 34.7476 38.4765 31.2318C38.4765 27.7161 35.6032 24.8627 32.0571 24.8627Z" fill="white"/>
<path d="M40.3127 15.7878H23.8046C19.7655 15.7878 16.4941 19.0361 16.4941 23.0436V39.4225C16.4941 43.43 19.768 46.6757 23.8046 46.6757H40.3127C44.3518 46.6757 47.6257 43.4275 47.6257 39.4225V23.0436C47.6257 19.0361 44.3518 15.7878 40.3127 15.7878ZM32.0574 41.0556C26.5906 41.0556 22.1561 36.6583 22.1561 31.2318C22.1561 25.8053 26.5906 21.408 32.0574 21.408C37.5241 21.408 41.9587 25.8053 41.9587 31.2318C41.9587 36.6583 37.5267 41.0556 32.0574 41.0556ZM42.2899 23.3238C41.0163 23.3238 39.9841 22.2997 39.9841 21.036C39.9841 19.7724 41.0163 18.7482 42.2899 18.7482C43.5635 18.7482 44.5958 19.7724 44.5958 21.036C44.5958 22.2997 43.5635 23.3238 42.2899 23.3238Z" fill="white"/>
<path d="M31.9184 0C14.7323 0 0.673828 13.951 0.673828 31C0.673828 48.0515 14.7349 62 31.9184 62C49.1045 62 63.163 48.049 63.163 31C63.163 13.9485 49.1019 0 31.9184 0ZM51.1381 39.1398C51.1381 45.1752 46.208 50.0693 40.1224 50.0693H23.9917C17.9087 50.0693 12.976 45.1752 12.976 39.1398V23.1354C12.976 17.0999 17.9087 12.2059 23.9917 12.2059H40.1224C46.2054 12.2059 51.1381 17.0999 51.1381 23.1354V39.1398Z" fill="white"/>
</svg>
