<svg width="63" height="62" viewBox="0 0 63 62" fill="none" xmlns="http://www.w3.org/2000/svg">
<path d="M31.2446 0C14.0611 0 0 13.951 0 31C0 48.0515 14.0611 62 31.2446 62C48.4306 62 62.4891 48.049 62.4891 31C62.4891 13.951 48.4306 0 31.2446 0ZM21.9775 46.4236H14.7903V23.4869H21.9775V46.4236ZM18.3852 20.3508C16.0819 20.3508 14.2203 18.5011 14.2203 16.221C14.2203 13.9408 16.0819 12.0836 18.3852 12.0836C20.6885 12.0836 22.5475 13.9383 22.5475 16.221C22.5475 18.5037 20.6808 20.3508 18.3852 20.3508ZM48.8928 46.4236H41.7108V35.2699C41.7108 32.6101 41.6646 29.1861 37.9747 29.1861C34.2848 29.1861 33.666 32.0879 33.666 35.0788V46.4236H26.4839V23.4869H33.3758V26.6257H33.476C34.4337 24.8194 36.7781 22.9214 40.2728 22.9214C47.5499 22.9214 48.8928 27.6702 48.8928 33.8457V46.4261V46.4236Z" fill="white"/>
</svg>
