<svg width="100" height="101" viewBox="0 0 100 101" fill="none" xmlns="http://www.w3.org/2000/svg">
<circle cx="50" cy="50.6499" r="50" fill="#816ADC"/>
<g clip-path="url(#clip0_2257_228)">
<path d="M44.1718 72.613C38.0357 72.613 32.9892 67.5762 32.9892 61.3236C32.9892 57.4446 34.939 53.9709 37.9783 51.9446L37.6343 46.3867C31.9569 48.9341 28 54.6657 28 61.3236C28 70.3551 35.283 77.6499 44.1718 77.6499C51.8563 77.6499 58.3364 72.2078 59.9421 64.913H54.7236C53.2326 69.3709 49.0463 72.613 44.1718 72.613Z" fill="white"/>
<path d="M72.9598 75.5078L68.9455 57.271C68.4868 55.1868 66.709 53.6236 64.6445 53.392L54.3795 52.3499C53.806 52.292 53.3472 51.8868 53.2899 51.3078L52.8885 49.0499L62.7521 49.2236C63.2109 49.2236 63.6123 48.8183 63.6123 48.3552V46.6183C63.6123 46.2131 63.2682 45.8078 62.8668 45.8078L52.1429 44.5341L51.2254 38.9762C50.9387 37.1236 49.333 35.7341 47.4405 35.7341H44.9746C42.7381 35.7341 41.0177 37.6447 41.1324 39.8447L42.1073 55.1868C42.3367 58.4868 45.032 61.0341 48.3007 61.0341H62.4654C63.0388 61.0341 63.555 61.4394 63.6696 61.9604L67.2825 75.971C67.5119 76.8394 68.2574 77.4183 69.1176 77.4183H71.5262C72.4437 77.3604 73.1892 76.492 72.9598 75.5078Z" fill="white"/>
<path d="M45.4908 34.1131C48.6263 34.1131 51.1681 31.5469 51.1681 28.3815C51.1681 25.216 48.6263 22.6499 45.4908 22.6499C42.3553 22.6499 39.8135 25.216 39.8135 28.3815C39.8135 31.5469 42.3553 34.1131 45.4908 34.1131Z" fill="white"/>
</g>
<defs>
<clipPath id="clip0_2257_228">
<rect width="45" height="55" fill="white" transform="translate(28 22.6499)"/>
</clipPath>
</defs>
</svg>
