<svg width="100" height="101" viewBox="0 0 100 101" fill="none" xmlns="http://www.w3.org/2000/svg">
<circle cx="50" cy="50.6499" r="50" fill="#816ADC"/>
<g clip-path="url(#clip0_2257_218)">
<path fill-rule="evenodd" clip-rule="evenodd" d="M37.1097 72.7896C39.1382 72.4541 41.2059 72.4541 43.2345 72.7896C45.3807 73.1579 47.4616 73.8091 49.4378 74.7365C49.9285 74.9667 50.4651 75.0851 51.0082 75.0719C51.5317 75.0522 52.0487 74.9075 52.5067 74.651L77.477 60.8515C77.8958 60.4305 78.079 59.8254 77.9678 59.24C77.9154 58.7927 77.778 58.3586 77.5621 57.964C77.3527 57.5759 77.0582 57.2339 76.7049 56.9774C76.1029 56.5564 75.3307 56.4775 74.6567 56.7603L62.8914 63.2654C62.5969 64.1534 61.864 64.8243 60.9545 65.0347C60.9414 65.0347 60.9218 65.0413 60.9087 65.0479L52.4216 67.1001C52.2711 67.1461 52.1076 67.1264 51.9767 67.0474C51.8393 66.9685 51.7411 66.837 51.7084 66.6857C51.6757 66.5344 51.7019 66.37 51.7869 66.2384C51.872 66.1069 52.0094 66.0148 52.1664 65.9885L60.6535 63.9297C60.6535 63.9297 60.6862 63.9166 60.7058 63.9166C61.2817 63.7653 61.7332 63.3114 61.8837 62.7261C61.8837 62.7129 61.8902 62.6932 61.8968 62.68C61.9098 62.634 61.9229 62.5945 61.9295 62.5485C62.0276 62.1078 62.0473 61.6539 61.9753 61.2067C61.9098 60.7462 61.7659 60.299 61.5434 59.8912C61.2293 59.2005 60.5488 58.7533 59.7963 58.7204L52.4151 59.9569C50.4782 60.2792 48.6264 59.1676 46.768 58.0495C44.9096 56.9313 43.0185 55.7868 41.2714 56.3722L33.4583 58.9901L37.1358 72.7896H37.1097ZM26.8689 55.504L29.3162 54.8463C29.3162 54.8463 29.3555 54.8397 29.3751 54.8331C29.807 54.7213 30.2716 54.7871 30.6577 55.0107L30.6839 55.0239C31.0568 55.2475 31.3382 55.6092 31.456 56.0368C31.456 56.0565 31.4691 56.0762 31.4691 56.096L36.7301 75.8283C36.8479 76.2756 36.789 76.7426 36.5535 77.1438C36.3244 77.5451 35.9514 77.8345 35.5065 77.9529L29.4406 79.5906C28.9956 79.709 28.531 79.6498 28.1319 79.4196C27.7327 79.1894 27.4448 78.8079 27.327 78.3672L22.0594 58.602C21.9416 58.1547 22.0071 57.6877 22.2361 57.2865L22.2492 57.2602C22.4782 56.8721 22.8512 56.5959 23.2831 56.4775L25.7631 55.8066L28.5899 66.416C28.6684 66.7251 28.9891 66.9093 29.2966 66.8238C29.6042 66.7383 29.7874 66.4226 29.7023 66.1134L26.8755 55.4974L26.8689 55.504ZM66.1566 40.2114H72.0982V35.8308H45.4462C44.5105 35.8308 43.614 35.4691 42.9334 34.8245V48.795C42.9334 50.5775 44.373 52.0245 46.1463 52.0245H68.8853C70.6586 52.0245 72.0982 50.5775 72.0982 48.795V46.6902H66.1566C64.3964 46.6639 62.9764 45.2234 62.9764 43.4475C62.9764 41.6716 64.3899 40.2312 66.1566 40.2048V40.2114ZM73.6883 41.3691V45.5392H66.1566C65.0246 45.5194 64.1216 44.592 64.1216 43.4541C64.1216 42.3162 65.0311 41.3888 66.1566 41.3691H73.6883ZM65.6789 29.6283C65.6528 30.0032 65.6004 30.3781 65.5284 30.7465C65.4696 31.0293 65.4041 31.299 65.319 31.5752H72.0982V29.6283H65.6789ZM49.0059 31.5752H46.4081C46.251 31.5752 46.1005 31.6278 45.9893 31.7397C45.8781 31.8449 45.8126 31.9962 45.8126 32.154C45.8126 32.3119 45.8781 32.4566 45.9893 32.5684C46.1005 32.6737 46.251 32.7329 46.4081 32.7329H72.0982V34.6798H45.4462C44.072 34.6535 42.9727 33.5353 42.9727 32.154C42.9727 30.7728 44.072 29.648 45.4462 29.6283H48.6525C48.6787 30.0032 48.7311 30.3781 48.803 30.7465C48.8619 31.0293 48.9274 31.299 49.0124 31.5752H49.0059ZM56.5899 24.7347C56.5899 24.419 56.8451 24.1559 57.1657 24.1559C57.4864 24.1559 57.7416 24.4124 57.7416 24.7347V25.0043C57.9837 25.0504 58.2193 25.1359 58.4417 25.2411C58.8344 25.4319 59.1681 25.7213 59.4167 26.083C59.5934 26.3461 59.5214 26.6948 59.2597 26.8789C59.0045 27.0565 58.6511 26.9907 58.4679 26.7342C58.3305 26.5435 58.1473 26.3856 57.9313 26.2804C57.6892 26.162 57.4275 26.1028 57.1592 26.1028C56.7666 26.0962 56.3805 26.2278 56.0795 26.4777C55.8309 26.6684 55.6804 26.9644 55.6804 27.2801C55.6804 27.5959 55.8309 27.8918 56.0795 28.0826C56.3805 28.3325 56.7666 28.4641 57.1592 28.4575C57.8266 28.4575 58.4679 28.6877 58.9849 29.1153C59.4887 29.5231 59.7832 30.1413 59.7897 30.7925C59.7897 31.0556 59.7439 31.3121 59.6458 31.5555H64.1085C64.8872 29.3718 64.6058 26.9513 63.3494 25.0043C62.0931 23.0837 60.0057 21.8406 57.7023 21.6696C55.399 21.4986 53.1545 22.4194 51.6233 24.1559C50.0987 25.8923 49.4639 28.247 49.9155 30.5228C49.9874 30.8846 50.0856 31.2332 50.2099 31.5752H58.2782C58.3763 31.4897 58.4548 31.3845 58.5203 31.2727C58.5988 31.1345 58.6381 30.9767 58.6381 30.8122C58.6315 30.4965 58.4875 30.2005 58.2389 30.0098C57.9379 29.7598 57.5518 29.6283 57.1592 29.6349C56.4918 29.6349 55.8505 29.4047 55.3335 28.9771C54.8231 28.5693 54.5287 27.951 54.5287 27.2999C54.5287 26.6487 54.8297 26.0239 55.3335 25.6226C55.6934 25.3201 56.1188 25.1162 56.5834 25.0241V24.7544L56.5899 24.7347Z" fill="white"/>
</g>
<defs>
<clipPath id="clip0_2257_218">
<rect width="56" height="58" fill="white" transform="translate(22 21.6499)"/>
</clipPath>
</defs>
</svg>
