<svg width="100" height="101" viewBox="0 0 100 101" fill="none" xmlns="http://www.w3.org/2000/svg">
<circle cx="50" cy="50.6499" r="50" fill="#816ADC"/>
<g clip-path="url(#clip0_2257_223)">
<path d="M62.9344 27.6499H36.0599C33.8203 27.6499 32 29.4795 32 31.7305V69.5636C32 71.8145 33.8203 73.6441 36.0599 73.6441H62.9401C65.1797 73.6441 67 71.8145 67 69.5636V31.7305C67 29.4795 65.1739 27.6499 62.9344 27.6499ZM38.7301 35.7591C38.7301 35.0203 39.3331 34.4143 40.0681 34.4143H58.9262C59.6612 34.4143 60.2642 35.0203 60.2642 35.7591V42.5407C60.2642 43.2795 59.6612 43.8855 58.9262 43.8855H40.0681C39.3331 43.8855 38.7301 43.2795 38.7301 42.5407V35.7591ZM42.3191 66.4296H39.6259C38.8794 66.4296 38.2822 65.8236 38.2822 65.079C38.2822 64.3345 38.8852 63.7284 39.6259 63.7284H42.3191C43.0656 63.7284 43.6628 64.3345 43.6628 65.079C43.6628 65.8236 43.0599 66.4296 42.3191 66.4296ZM42.3191 59.215H39.6259C38.8794 59.215 38.2822 58.609 38.2822 57.8645C38.2822 57.1199 38.8852 56.5139 39.6259 56.5139H42.3191C43.0656 56.5139 43.6628 57.1199 43.6628 57.8645C43.6628 58.609 43.0599 59.215 42.3191 59.215ZM42.3191 52.0005H39.6259C38.8794 52.0005 38.2822 51.3944 38.2822 50.6499C38.2822 49.9054 38.8852 49.2993 39.6259 49.2993H42.3191C43.0656 49.2993 43.6628 49.9054 43.6628 50.6499C43.6628 51.3944 43.0599 52.0005 42.3191 52.0005ZM50.8409 66.4296H48.1477C47.4011 66.4296 46.8039 65.8236 46.8039 65.079C46.8039 64.3345 47.4069 63.7284 48.1477 63.7284H50.8409C51.5874 63.7284 52.1846 64.3345 52.1846 65.079C52.1846 65.8236 51.5816 66.4296 50.8409 66.4296ZM50.8409 59.215H48.1477C47.4011 59.215 46.8039 58.609 46.8039 57.8645C46.8039 57.1199 47.4069 56.5139 48.1477 56.5139H50.8409C51.5874 56.5139 52.1846 57.1199 52.1846 57.8645C52.1846 58.609 51.5816 59.215 50.8409 59.215ZM50.8409 52.0005H48.1477C47.4011 52.0005 46.8039 51.3944 46.8039 50.6499C46.8039 49.9054 47.4069 49.2993 48.1477 49.2993H50.8409C51.5874 49.2993 52.1846 49.9054 52.1846 50.6499C52.1846 51.3944 51.5816 52.0005 50.8409 52.0005ZM59.3683 66.4296H56.6751C55.9286 66.4296 55.3314 65.8236 55.3314 65.079C55.3314 64.3345 55.9344 63.7284 56.6751 63.7284H59.3683C60.1148 63.7284 60.7121 64.3345 60.7121 65.079C60.7121 65.8236 60.1091 66.4296 59.3683 66.4296ZM59.3683 59.215H56.6751C55.9286 59.215 55.3314 58.609 55.3314 57.8645C55.3314 57.1199 55.9344 56.5139 56.6751 56.5139H59.3683C60.1148 56.5139 60.7121 57.1199 60.7121 57.8645C60.7121 58.609 60.1091 59.215 59.3683 59.215ZM59.3683 52.0005H56.6751C55.9286 52.0005 55.3314 51.3944 55.3314 50.6499C55.3314 49.9054 55.9344 49.2993 56.6751 49.2993H59.3683C60.1148 49.2993 60.7121 49.9054 60.7121 50.6499C60.7121 51.3944 60.1091 52.0005 59.3683 52.0005Z" fill="white"/>
</g>
<defs>
<clipPath id="clip0_2257_223">
<rect width="35" height="46" fill="white" transform="translate(32 27.6499)"/>
</clipPath>
</defs>
</svg>
