<svg width="100" height="101" viewBox="0 0 100 101" fill="none" xmlns="http://www.w3.org/2000/svg">
<circle cx="50" cy="50.6499" r="50" fill="#816ADC"/>
<g clip-path="url(#clip0_2257_235)">
<path d="M57.0596 28.6499C50.6996 28.6499 44.9396 31.5792 41.0996 36.0629C42.4196 36.8401 43.6196 37.9162 44.5196 39.1716C47.5196 35.5847 52.0196 33.2532 57.0596 33.2532C66.0596 33.2532 73.3796 40.5466 73.3796 49.4542C73.3796 58.3619 66.0596 65.7151 57.0596 65.7151C55.4396 65.7151 53.8796 65.476 52.4396 65.0575C52.4996 65.4162 52.4996 65.8347 52.4996 66.1934V69.8401C53.9396 70.1988 55.4996 70.3184 57.0596 70.3184C68.5796 70.3184 77.9996 60.9923 77.9996 49.4542C77.9996 37.9162 68.6396 28.6499 57.0596 28.6499Z" fill="white"/>
<path d="M42.06 57.226C39.96 58.6608 37.44 59.4978 34.74 59.4978C32.04 59.4978 29.52 58.6608 27.42 57.226C23.7 58.5412 21 62.0684 21 66.1934V70.9162C21 71.8728 21.78 72.6499 22.74 72.6499H46.74C47.7 72.6499 48.48 71.8728 48.48 70.9162V66.1934C48.42 62.0684 45.78 58.5412 42.06 57.226Z" fill="white"/>
<path d="M34.74 54.8347C39.3129 54.8347 43.02 51.141 43.02 46.5847C43.02 42.0283 39.3129 38.3347 34.74 38.3347C30.167 38.3347 26.46 42.0283 26.46 46.5847C26.46 51.141 30.167 54.8347 34.74 54.8347Z" fill="white"/>
<path d="M56.6399 55.7912C56.8799 55.6119 57.2399 55.6119 57.4799 55.7912L61.3799 58.0032C62.3999 58.601 63.6599 57.7043 63.4199 56.5086L62.5199 52.0847C62.4599 51.7858 62.5799 51.4869 62.7599 51.2478L66.0599 48.1988C66.9599 47.4217 66.4799 45.9271 65.2799 45.8075L60.8999 45.3891C60.5999 45.3293 60.3599 45.1499 60.1799 44.9108L58.3199 40.8456C57.8399 39.7695 56.2799 39.7695 55.7999 40.8456L53.9399 44.9108C53.8199 45.2097 53.5199 45.3891 53.2199 45.3891L48.7199 45.8673C47.5199 45.9869 47.0399 47.4814 47.9399 48.2586L51.2399 51.3075C51.4799 51.4869 51.5399 51.8456 51.4799 52.1445L50.6999 56.5684C50.4599 57.7043 51.7199 58.6608 52.7399 58.063L56.6399 55.7912Z" fill="white"/>
</g>
<defs>
<clipPath id="clip0_2257_235">
<rect width="57" height="44" fill="white" transform="translate(21 28.6499)"/>
</clipPath>
</defs>
</svg>
