<svg width="63" height="62" viewBox="0 0 63 62" fill="none" xmlns="http://www.w3.org/2000/svg">
<path d="M27.9219 36.0953L38.2982 30.7223L27.9219 25.3492V36.0953Z" fill="white"/>
<path d="M31.7553 0C14.5718 0 0.510742 13.951 0.510742 31C0.510742 48.0515 14.5718 62 31.7553 62C48.9413 62 62.9999 48.049 62.9999 31C62.9999 13.9485 48.9388 0 31.7553 0ZM51.3474 35.4584C51.3474 40.4085 49.6424 44.4186 44.6558 44.4186H18.9961C14.0069 44.4186 11.7704 40.406 11.7704 35.4584V25.9811C11.7704 21.031 13.7964 17.021 18.783 17.021H44.8663C49.8555 17.021 51.3474 21.031 51.3474 25.9811V35.4584Z" fill="white"/>
</svg>
